<svg width="159" height="159" viewBox="0 0 159 159" fill="none" xmlns="http://www.w3.org/2000/svg">
<path d="M109.312 19.875C102.952 19.875 96.725 21.5313 91.2262 24.4462L79.5 59.625H99.375L79.5 125.875L86.125 66.25H66.25L76.4525 30.5413C69.3637 23.9163 59.6912 19.875 49.6875 19.875C29.2825 19.875 13.25 35.9075 13.25 56.3125C13.25 83.6737 40.81 103.88 79.5 139.125C115.739 106.397 145.75 84.4025 145.75 56.3125C145.75 35.9075 129.717 19.875 109.312 19.875ZM67.84 110.836C42.7312 88.3775 26.5 72.875 26.5 56.3125C26.5 43.3275 36.7025 33.125 49.6875 33.125C53.5962 33.125 57.5712 34.1187 61.1487 35.9075L48.6937 79.5H71.3512L67.84 110.836ZM100.236 102.886L117.196 46.375H97.9175L101.959 34.3175C104.344 33.5225 106.861 33.125 109.312 33.125C122.297 33.125 132.5 43.3275 132.5 56.3125C132.5 70.9537 119.117 85.6612 100.236 102.886Z" fill="#37474F"/>
</svg>
