<svg width="159" height="159" viewBox="0 0 159 159" fill="none" xmlns="http://www.w3.org/2000/svg">
<path d="M119.25 56.3125H112.625V43.0625C112.625 24.7775 97.785 9.9375 79.5 9.9375C61.215 9.9375 46.375 24.7775 46.375 43.0625V56.3125H39.75C32.4625 56.3125 26.5 62.275 26.5 69.5625V135.812C26.5 143.1 32.4625 149.062 39.75 149.062H119.25C126.537 149.062 132.5 143.1 132.5 135.812V69.5625C132.5 62.275 126.537 56.3125 119.25 56.3125ZM59.625 43.0625C59.625 32.065 68.5025 23.1875 79.5 23.1875C90.4975 23.1875 99.375 32.065 99.375 43.0625V56.3125H59.625V43.0625ZM119.25 135.812H39.75V69.5625H119.25V135.812ZM79.5 115.937C86.7875 115.937 92.75 109.975 92.75 102.687C92.75 95.4 86.7875 89.4375 79.5 89.4375C72.2125 89.4375 66.25 95.4 66.25 102.687C66.25 109.975 72.2125 115.937 79.5 115.937Z" fill="#37474F"/>
</svg>
