<svg width="127" height="127" viewBox="0 0 127 127" fill="none" xmlns="http://www.w3.org/2000/svg">
<path d="M111.125 15.875H15.8753C10.5837 15.875 5.29199 21.1667 5.29199 26.4583V100.542C5.29199 106.362 10.0545 111.125 15.8753 111.125H111.125C116.417 111.125 121.709 105.833 121.709 100.542V26.4583C121.709 21.1667 116.417 15.875 111.125 15.875ZM111.125 100.118C111.019 100.277 110.808 100.436 110.702 100.542H15.8753V26.8817L16.2987 26.4583H110.649C110.808 26.5642 110.967 26.7758 111.072 26.8817V100.118H111.125ZM58.2087 82.0737L44.9795 66.1458L26.4587 89.9583H100.542L76.7295 58.2083L58.2087 82.0737Z" fill="#37474F"/>
</svg>
